<svg width="45" height="45" viewBox="0 0 45 45" fill="none" xmlns="http://www.w3.org/2000/svg">
<g id="Icon">
<g id="out line">
<path id="Vector" d="M14.8695 44.9999C15.3914 44.9999 15.9125 44.9562 16.4275 44.8691C16.5927 44.8415 16.7627 44.808 16.9311 44.7696C17.875 44.5551 18.7818 44.1945 19.6205 43.7001C22.1241 42.2292 24.096 39.544 25.173 36.1392C25.5355 34.9864 25.7917 33.8012 25.9384 32.5991C26.2954 32.635 26.6555 32.6549 27.0192 32.6549C29.2247 32.6549 31.5415 31.999 33.8175 30.7182C36.7596 29.0627 39.3648 26.5041 41.3513 23.3191C45.8411 16.1233 45.9639 7.57995 41.644 3.00553C40.9026 2.21896 40.0377 1.56658 39.0855 1.07583C36.2208 -0.402645 32.6943 -0.356 29.1557 1.20692C25.6691 2.7467 22.4775 5.63349 20.1685 9.33488C19.4859 10.4282 18.8921 11.5776 18.3933 12.7714C16.3701 11.241 14.0994 10.3599 11.7722 10.3298C11.0434 10.3204 10.316 10.3971 9.60427 10.5582C9.27733 10.6322 8.95453 10.7243 8.6373 10.8343C5.59786 11.8789 3.14144 14.482 1.72065 18.1643C0.320489 21.7913 0.0563755 26.1546 0.976703 30.4494C2.79774 38.9517 8.71319 44.9999 14.8695 44.9999ZM41.0742 4.63823C42.5677 6.53556 43.358 9.18142 43.3127 12.1822C43.2612 15.6012 42.122 19.2647 40.1052 22.4967C38.2521 25.4676 35.8322 27.8485 33.107 29.382C30.7857 30.6882 28.3516 31.2827 26.1664 31.0913C30.4709 27.6138 33.3694 22.6183 34.3017 17.0703C35.0466 12.6627 37.1221 8.60841 40.2336 5.4828L41.0742 4.63823ZM37.7409 3.83745L38.8799 2.69348C38.9725 2.74955 39.0656 2.80715 39.1576 2.86741C39.4675 3.07218 39.7634 3.29872 40.043 3.54539L39.1992 4.39262C35.8648 7.74189 33.6407 12.0865 32.8427 16.8097C32.0366 21.6068 29.6526 25.9732 26.0899 29.1777C26.0699 28.5616 26.025 27.9415 25.9551 27.3173C29.016 24.0429 31.0548 19.9014 31.8094 15.4255C32.5457 11.0148 34.6223 6.95777 37.7409 3.83745ZM21.4144 10.1575C25.5101 3.59165 32.3395 0.200988 37.4392 2.01217L36.7066 2.74803C33.3648 6.09146 31.1395 10.4386 30.3505 15.1648C29.7136 18.9452 28.093 22.4775 25.6608 25.3863C25.6281 25.2171 25.5944 25.0477 25.5581 24.8784C24.5767 20.2964 22.3878 16.3869 19.5879 13.7777C20.0865 12.5154 20.6979 11.3034 21.4144 10.1575ZM12.4841 13.1065L12.4957 11.8975C14.8563 12.1483 17.2363 13.4397 19.2712 15.5898C21.5898 18.0402 23.3091 21.4554 24.1126 25.2062C24.8838 28.808 24.7604 32.5235 23.7657 35.6682C23.0041 38.0748 21.7612 40.0676 20.1952 41.4308C20.8376 35.8394 19.4422 30.2016 16.2788 25.6069C13.8027 22.017 12.4758 17.7225 12.4827 13.3208C12.4827 13.2498 12.4827 13.1796 12.4836 13.1065H12.4841ZM9.59215 13.7621L9.60723 12.1248C9.71171 12.0962 9.81666 12.0696 9.92234 12.0457C10.2825 11.9644 10.6476 11.9085 11.0152 11.8787L11.0035 13.0898C11.0025 13.1672 11.0025 13.2436 11.0025 13.3211C10.995 18.0379 12.4169 22.6397 15.0702 26.4866C18.0618 30.8315 19.358 36.1736 18.7022 41.455L18.5668 42.5555C18.122 42.7916 17.6567 42.9846 17.1771 43.1321L17.2789 42.3021C17.3959 41.35 17.4546 40.3912 17.4548 39.4315C17.4627 34.7136 16.0408 30.1106 13.3869 26.2628C10.8685 22.6137 9.5397 18.237 9.59169 13.7621H9.59215ZM8.12074 12.6941L8.11102 13.7473C8.05541 18.5423 9.47929 23.232 12.178 27.1422C14.6546 30.7328 15.9816 35.0283 15.9744 39.4309C15.9741 40.3267 15.9192 41.2216 15.81 42.1103L15.6468 43.438C13.0115 43.695 10.2707 42.6104 7.87004 40.3441C5.23677 37.8581 3.30228 34.2278 2.42285 30.1217C0.790139 22.5035 3.27359 15.1338 8.12074 12.6941Z" fill="#BC9A6C"/>
<path id="Vector_2" d="M25.8063 9.49409C25.9934 9.49432 26.1735 9.42143 26.3104 9.29018C26.6209 8.99298 26.9474 8.70568 27.2808 8.43628C27.3572 8.37448 27.4211 8.2978 27.4687 8.21061C27.5163 8.12343 27.5468 8.02744 27.5584 7.92814C27.5699 7.82884 27.5624 7.72817 27.5361 7.63187C27.5099 7.53557 27.4654 7.44554 27.4054 7.36691C27.3453 7.28827 27.2707 7.22258 27.186 7.17358C27.1012 7.12459 27.0079 7.09324 26.9114 7.08134C26.8149 7.06944 26.717 7.07721 26.6234 7.10421C26.5298 7.13122 26.4422 7.17693 26.3658 7.23873C26.0004 7.53383 25.6425 7.84902 25.3016 8.17488C25.1927 8.27907 25.1168 8.41458 25.0838 8.56376C25.0509 8.71295 25.0624 8.86888 25.1168 9.01125C25.1712 9.15363 25.2661 9.27583 25.389 9.36196C25.5119 9.44808 25.6572 9.49413 25.8059 9.49409H25.8063Z" fill="#BC9A6C"/>
<path id="Vector_3" d="M22.024 14.1704C22.111 14.2149 22.2057 14.2415 22.3027 14.2484C22.3997 14.2553 22.4971 14.2424 22.5892 14.2106C22.6814 14.1788 22.7666 14.1286 22.8399 14.0629C22.9131 13.9972 22.9731 13.9172 23.0164 13.8277C23.4881 12.8522 24.0564 11.9294 24.7122 11.0739C24.7738 10.9956 24.8197 10.9054 24.8472 10.8087C24.8747 10.7119 24.8833 10.6105 24.8724 10.5104C24.8615 10.4102 24.8314 10.3132 24.7838 10.2251C24.7363 10.137 24.6721 10.0595 24.5952 9.99707C24.5183 9.93463 24.4301 9.88853 24.3357 9.86142C24.2413 9.83432 24.1427 9.82676 24.0454 9.83918C23.9482 9.85159 23.8543 9.88374 23.7693 9.93376C23.6842 9.98378 23.6096 10.0507 23.5499 10.1306C22.8308 11.0684 22.2077 12.0801 21.6906 13.1496C21.6033 13.3304 21.5893 13.5395 21.6518 13.731C21.7143 13.9224 21.8482 14.0804 22.024 14.1704Z" fill="#BC9A6C"/>
<path id="Vector_4" d="M7.70081 37.8166C7.82844 37.9701 8.01013 38.0652 8.20591 38.0809C8.40169 38.0967 8.59552 38.0317 8.74477 37.9005C8.89402 37.7692 8.98646 37.5823 9.00175 37.3809C9.01704 37.1795 8.95393 36.9801 8.8263 36.8266C8.55062 36.4948 8.28503 36.1473 8.03739 35.7935C7.92262 35.6296 7.74926 35.5193 7.55545 35.4869C7.36164 35.4545 7.16325 35.5026 7.00393 35.6207C6.8446 35.7387 6.73739 35.9171 6.70589 36.1164C6.67438 36.3158 6.72115 36.5199 6.83592 36.6838C7.1079 37.0718 7.39885 37.4529 7.70081 37.8166Z" fill="#BC9A6C"/>
<path id="Vector_5" d="M9.52691 39.6997C10.4078 40.478 11.3644 41.1607 12.3815 41.7369C12.4667 41.7855 12.5604 41.8163 12.6572 41.8276C12.754 41.8389 12.852 41.8304 12.9456 41.8026C13.0392 41.7749 13.1266 41.7284 13.2027 41.6658C13.2788 41.6033 13.3422 41.5259 13.3891 41.4381C13.4361 41.3503 13.4658 41.2538 13.4764 41.1542C13.4871 41.0546 13.4785 40.9538 13.4513 40.8576C13.424 40.7614 13.3785 40.6717 13.3175 40.5936C13.2564 40.5155 13.181 40.4506 13.0955 40.4025C12.1678 39.877 11.2952 39.2544 10.4917 38.5446C10.3426 38.4149 10.1496 38.3511 9.9549 38.367C9.76019 38.383 9.5795 38.4775 9.45221 38.6299C9.32492 38.7823 9.26135 38.9803 9.27534 39.1807C9.28933 39.3812 9.37976 39.5678 9.52691 39.6999V39.6997Z" fill="#BC9A6C"/>
</g>
</g>
</svg>
