<svg width="40" height="42" viewBox="0 0 40 42" fill="none" xmlns="http://www.w3.org/2000/svg">
<g id="Coffee 1" clip-path="url(#clip0_52_1818)">
<g id="Group">
<g id="line_10_">
<g id="Vector">
<mask id="path-1-inside-1_52_1818" fill="white">
<path d="M34.8403 8.32388L33.6415 4.38637C33.56 4.11797 33.331 3.9375 33.0727 3.9375H32.3061L31.244 0.448875C31.1625 0.180469 30.9335 0 30.6752 0H9.09769C8.83936 0 8.61039 0.180469 8.52888 0.448875L7.46679 3.9375H6.70019C6.44186 3.9375 6.21349 4.11797 6.13138 4.38637L4.93263 8.32388C4.87149 8.52403 4.90266 8.74387 5.01534 8.91516C5.12803 9.08644 5.30904 9.1875 5.50144 9.1875H7.34571L9.69886 41.3963C9.72403 41.7375 9.98416 42 10.2964 42H29.4764C29.7887 42 30.0488 41.7375 30.074 41.3963L32.4272 9.1875H34.2714C34.4638 9.1875 34.6449 9.08644 34.7575 8.9145C34.8702 8.74387 34.9008 8.52403 34.8403 8.32388ZM29.5244 32.4594H10.2485L9.0833 16.5145H30.689L29.5244 32.4594ZM10.8497 40.6875L10.3444 33.7719H29.4285L28.9232 40.6875H10.8497ZM30.7855 15.2027H8.9874L8.54806 9.1875H31.2248L30.7855 15.2027ZM6.33277 7.875L7.13174 5.25H7.89894C8.15727 5.25 8.38623 5.06953 8.46774 4.80113L9.52984 1.3125H30.2436L31.3057 4.80113C31.3872 5.06953 31.6156 5.25 31.8739 5.25H32.6405L33.4395 7.875H6.33277Z"/>
</mask>
<path d="M34.8403 8.32388L33.6415 4.38637C33.56 4.11797 33.331 3.9375 33.0727 3.9375H32.3061L31.244 0.448875C31.1625 0.180469 30.9335 0 30.6752 0H9.09769C8.83936 0 8.61039 0.180469 8.52888 0.448875L7.46679 3.9375H6.70019C6.44186 3.9375 6.21349 4.11797 6.13138 4.38637L4.93263 8.32388C4.87149 8.52403 4.90266 8.74387 5.01534 8.91516C5.12803 9.08644 5.30904 9.1875 5.50144 9.1875H7.34571L9.69886 41.3963C9.72403 41.7375 9.98416 42 10.2964 42H29.4764C29.7887 42 30.0488 41.7375 30.074 41.3963L32.4272 9.1875H34.2714C34.4638 9.1875 34.6449 9.08644 34.7575 8.9145C34.8702 8.74387 34.9008 8.52403 34.8403 8.32388ZM29.5244 32.4594H10.2485L9.0833 16.5145H30.689L29.5244 32.4594ZM10.8497 40.6875L10.3444 33.7719H29.4285L28.9232 40.6875H10.8497ZM30.7855 15.2027H8.9874L8.54806 9.1875H31.2248L30.7855 15.2027ZM6.33277 7.875L7.13174 5.25H7.89894C8.15727 5.25 8.38623 5.06953 8.46774 4.80113L9.52984 1.3125H30.2436L31.3057 4.80113C31.3872 5.06953 31.6156 5.25 31.8739 5.25H32.6405L33.4395 7.875H6.33277Z" fill="#BC9A6C"/>
<path d="M33.6415 4.38637L25.9867 6.71113L25.9883 6.71635L33.6415 4.38637ZM32.3061 3.9375L24.6529 6.26747L26.3791 11.9375H32.3061V3.9375ZM31.244 0.448875L23.5892 2.77363L23.5908 2.77884L31.244 0.448875ZM8.52888 0.448875L16.1821 2.77884L16.1837 2.77363L8.52888 0.448875ZM7.46679 3.9375V11.9375H13.3938L15.12 6.26747L7.46679 3.9375ZM6.13138 4.38637L-1.51863 2.04598L-1.52181 2.05641L6.13138 4.38637ZM4.93263 8.32388L12.5837 10.6608L12.5858 10.6538L4.93263 8.32388ZM7.34571 9.1875L15.3244 8.60458L14.7826 1.1875H7.34571V9.1875ZM9.69886 41.3963L1.72012 41.9792L1.72054 41.9848L9.69886 41.3963ZM30.074 41.3963L38.0523 41.9848L38.0528 41.9792L30.074 41.3963ZM32.4272 9.1875V1.1875H24.9903L24.4484 8.60458L32.4272 9.1875ZM34.7575 8.9145L28.0819 4.50585L28.0742 4.5176L28.0665 4.52937L34.7575 8.9145ZM29.5244 32.4594V40.4594H36.9614L37.5031 33.0422L29.5244 32.4594ZM10.2485 32.4594L2.26976 33.0425L2.81176 40.4594H10.2485V32.4594ZM9.0833 16.5145V8.51453H0.477364L1.10458 17.0976L9.0833 16.5145ZM30.689 16.5145L38.6677 17.0973L39.2946 8.51453H30.689V16.5145ZM10.8497 40.6875L2.87093 41.2705L3.41284 48.6875H10.8497V40.6875ZM10.3444 33.7719V25.7719H1.73856L2.36565 34.3549L10.3444 33.7719ZM29.4285 33.7719L37.4072 34.3549L38.0343 25.7719H29.4285V33.7719ZM28.9232 40.6875V48.6875H36.36L36.902 41.2705L28.9232 40.6875ZM30.7855 15.2027V23.2027H38.2225L38.7642 15.7854L30.7855 15.2027ZM8.9874 15.2027L1.00866 15.7854L1.5504 23.2027H8.9874V15.2027ZM8.54806 9.1875V1.1875H-0.0575604L0.569314 9.77026L8.54806 9.1875ZM31.2248 9.1875L39.2036 9.77026L39.8304 1.1875H31.2248V9.1875ZM6.33277 7.875L-1.32058 5.54556L-4.46453 15.875H6.33277V7.875ZM7.13174 5.25V-2.75H1.20433L-0.521611 2.92056L7.13174 5.25ZM8.46774 4.80113L0.814557 2.47116L0.812973 2.47637L8.46774 4.80113ZM9.52984 1.3125V-6.6875H3.60286L1.87665 -1.01747L9.52984 1.3125ZM30.2436 1.3125L37.8968 -1.01747L36.1706 -6.6875H30.2436V1.3125ZM31.3057 4.80113L38.9605 2.47637L38.9589 2.47116L31.3057 4.80113ZM32.6405 5.25L40.2939 2.92056L38.5679 -2.75H32.6405V5.25ZM33.4395 7.875V15.875H44.2368L41.0929 5.54556L33.4395 7.875ZM42.4934 5.99391L41.2947 2.0564L25.9883 6.71635L27.1871 10.6538L42.4934 5.99391ZM41.2963 2.06162C40.3089 -1.18946 37.2434 -4.0625 33.0727 -4.0625V11.9375C29.4186 11.9375 26.8111 9.42539 25.9867 6.71113L41.2963 2.06162ZM33.0727 -4.0625H32.3061V11.9375H33.0727V-4.0625ZM39.9593 1.60753L38.8972 -1.88109L23.5908 2.77884L24.6529 6.26747L39.9593 1.60753ZM38.8988 -1.87588C37.9114 -5.12696 34.8459 -8 30.6752 -8V8C27.0211 8 24.4136 5.48789 23.5892 2.77363L38.8988 -1.87588ZM30.6752 -8H9.09769V8H30.6752V-8ZM9.09769 -8C4.92693 -8 1.86146 -5.12695 0.874109 -1.87588L16.1837 2.77363C15.3593 5.48788 12.7518 8 9.09769 8V-8ZM0.875694 -1.88109L-0.186398 1.60753L15.12 6.26747L16.1821 2.77884L0.875694 -1.88109ZM7.46679 -4.0625H6.70019V11.9375H7.46679V-4.0625ZM6.70019 -4.0625C2.51815 -4.0625 -0.531872 -1.1794 -1.51863 2.04598L13.7814 6.72677C12.9589 9.41534 10.3656 11.9375 6.70019 11.9375V-4.0625ZM-1.52181 2.05641L-2.72056 5.99391L12.5858 10.6538L13.7846 6.71634L-1.52181 2.05641ZM-2.71843 5.98692C-3.4638 8.42722 -3.11003 11.1201 -1.66804 13.312L11.6987 4.51829C12.9154 6.36761 13.2068 8.62084 12.5837 10.6608L-2.71843 5.98692ZM-1.66804 13.312C-0.182783 15.5697 2.42776 17.1875 5.50144 17.1875V1.1875C8.19031 1.1875 10.4388 2.60321 11.6987 4.51829L-1.66804 13.312ZM5.50144 17.1875H7.34571V1.1875H5.50144V17.1875ZM-0.633022 9.77042L1.72013 41.9792L17.6776 40.8133L15.3244 8.60458L-0.633022 9.77042ZM1.72054 41.9848C2.00823 45.8847 5.1999 50 10.2964 50V34C14.7684 34 17.4398 37.5903 17.6772 40.8077L1.72054 41.9848ZM10.2964 50H29.4764V34H10.2964V50ZM29.4764 50C34.573 50 37.7646 45.8847 38.0523 41.9848L22.0957 40.8077C22.333 37.5903 25.0045 34 29.4764 34V50ZM38.0528 41.9792L40.4059 9.77042L24.4484 8.60458L22.0953 40.8133L38.0528 41.9792ZM32.4272 17.1875H34.2714V1.1875H32.4272V17.1875ZM34.2714 17.1875C37.3487 17.1875 39.9635 15.5658 41.4486 13.2996L28.0665 4.52937C29.3262 2.60711 31.579 1.1875 34.2714 1.1875V17.1875ZM41.4332 13.3231C42.8956 11.1087 43.2257 8.41482 42.4977 6.0079L27.1828 10.6399C26.5759 8.63324 26.8448 6.37908 28.0819 4.50585L41.4332 13.3231ZM29.5244 24.4594H10.2485V40.4594H29.5244V24.4594ZM18.2272 31.8764L17.062 15.9315L1.10458 17.0976L2.26976 33.0425L18.2272 31.8764ZM9.0833 24.5145H30.689V8.51453H9.0833V24.5145ZM22.7102 15.9318L21.5456 31.8767L37.5031 33.0422L38.6677 17.0973L22.7102 15.9318ZM18.8284 40.1045L18.3231 33.189L2.36565 34.3549L2.87093 41.2705L18.8284 40.1045ZM10.3444 41.7719H29.4285V25.7719H10.3444V41.7719ZM21.4498 33.189L20.9445 40.1045L36.902 41.2705L37.4072 34.3549L21.4498 33.189ZM28.9232 32.6875H10.8497V48.6875H28.9232V32.6875ZM30.7855 7.20269H8.9874V23.2027H30.7855V7.20269ZM16.9661 14.6199L16.5268 8.60474L0.569314 9.77026L1.00866 15.7854L16.9661 14.6199ZM8.54806 17.1875H31.2248V1.1875H8.54806V17.1875ZM23.2461 8.60474L22.8067 14.6199L38.7642 15.7854L39.2036 9.77026L23.2461 8.60474ZM13.9861 10.2044L14.7851 7.57944L-0.521611 2.92056L-1.32058 5.54556L13.9861 10.2044ZM7.13174 13.25H7.89894V-2.75H7.13174V13.25ZM7.89894 13.25C12.0697 13.25 15.1352 10.3769 16.1225 7.12588L0.812973 2.47637C1.63729 -0.237885 4.24484 -2.75 7.89894 -2.75V13.25ZM16.1209 7.13109L17.183 3.64247L1.87665 -1.01747L0.814559 2.47116L16.1209 7.13109ZM9.52984 9.3125H30.2436V-6.6875H9.52984V9.3125ZM22.5905 3.64247L23.6525 7.13109L38.9589 2.47116L37.8968 -1.01747L22.5905 3.64247ZM23.651 7.12588C24.6354 10.3673 27.6939 13.25 31.8739 13.25V-2.75C35.5373 -2.75 38.1391 -0.228231 38.9605 2.47637L23.651 7.12588ZM31.8739 13.25H32.6405V-2.75H31.8739V13.25ZM24.9872 7.57944L25.7862 10.2044L41.0929 5.54556L40.2939 2.92056L24.9872 7.57944ZM33.4395 -0.125H6.33277V15.875H33.4395V-0.125Z" fill="#BC9A6C" mask="url(#path-1-inside-1_52_1818)"/>
</g>
<g id="Vector_2">
<mask id="path-3-inside-2_52_1818" fill="white">
<path d="M19.8863 18.375C17.5127 18.375 15.5815 21.1719 15.5815 24.6094C15.5815 28.0468 17.5127 30.8438 19.8863 30.8438C22.2598 30.8438 24.191 28.0468 24.191 24.6094C24.191 21.1719 22.2598 18.375 19.8863 18.375ZM16.7803 24.6094C16.7803 23.4012 17.0572 22.2954 17.5145 21.4384C17.5055 21.5657 17.4888 21.6891 17.4888 21.8203C17.4888 23.7523 18.5419 25.2656 19.8863 25.2656C20.5246 25.2656 21.085 26.2625 21.085 27.3984C21.085 28.5344 20.5246 29.5312 19.8863 29.5312C18.1738 29.5312 16.7803 27.3236 16.7803 24.6094ZM22.258 27.7804C22.267 27.6531 22.2838 27.5297 22.2838 27.3984C22.2838 25.4664 21.2307 23.9531 19.8863 23.9531C19.2479 23.9531 18.6875 22.9563 18.6875 21.8203C18.6875 20.6843 19.2479 19.6875 19.8863 19.6875C21.5987 19.6875 22.9922 21.8951 22.9922 24.6094C22.9922 25.8175 22.7147 26.9233 22.258 27.7804Z"/>
</mask>
<path d="M19.8863 18.375C17.5127 18.375 15.5815 21.1719 15.5815 24.6094C15.5815 28.0468 17.5127 30.8438 19.8863 30.8438C22.2598 30.8438 24.191 28.0468 24.191 24.6094C24.191 21.1719 22.2598 18.375 19.8863 18.375ZM16.7803 24.6094C16.7803 23.4012 17.0572 22.2954 17.5145 21.4384C17.5055 21.5657 17.4888 21.6891 17.4888 21.8203C17.4888 23.7523 18.5419 25.2656 19.8863 25.2656C20.5246 25.2656 21.085 26.2625 21.085 27.3984C21.085 28.5344 20.5246 29.5312 19.8863 29.5312C18.1738 29.5312 16.7803 27.3236 16.7803 24.6094ZM22.258 27.7804C22.267 27.6531 22.2838 27.5297 22.2838 27.3984C22.2838 25.4664 21.2307 23.9531 19.8863 23.9531C19.2479 23.9531 18.6875 22.9563 18.6875 21.8203C18.6875 20.6843 19.2479 19.6875 19.8863 19.6875C21.5987 19.6875 22.9922 21.8951 22.9922 24.6094C22.9922 25.8175 22.7147 26.9233 22.258 27.7804Z" fill="#BC9A6C"/>
<path d="M17.5145 21.4384L25.4947 22.0019L10.4565 17.6722L17.5145 21.4384ZM22.258 27.7804L14.2779 27.2168L29.3181 31.5427L22.258 27.7804ZM19.8863 10.375C15.3143 10.375 12.0451 13.0733 10.2607 15.6576C8.45033 18.2795 7.58154 21.4682 7.58154 24.6094H23.5815C23.5815 24.3131 23.6783 24.3847 23.427 24.7487C23.2016 25.0752 22.0847 26.375 19.8863 26.375V10.375ZM7.58154 24.6094C7.58154 27.7506 8.45033 30.9393 10.2607 33.5611C12.0451 36.1455 15.3143 38.8438 19.8863 38.8438V22.8438C22.0847 22.8438 23.2016 24.1436 23.427 24.4701C23.6783 24.8341 23.5815 24.9056 23.5815 24.6094H7.58154ZM19.8863 38.8438C24.4582 38.8438 27.7274 36.1455 29.5119 33.5611C31.3222 30.9393 32.191 27.7506 32.191 24.6094H16.191C16.191 24.9056 16.0942 24.8341 16.3455 24.4701C16.5709 24.1436 17.6878 22.8438 19.8863 22.8438V38.8438ZM32.191 24.6094C32.191 21.4682 31.3222 18.2795 29.5119 15.6576C27.7274 13.0733 24.4582 10.375 19.8863 10.375V26.375C17.6878 26.375 16.5709 25.0752 16.3455 24.7487C16.0942 24.3847 16.191 24.3131 16.191 24.6094H32.191ZM24.7803 24.6094C24.7803 24.6119 24.7805 24.6516 24.7613 24.7329C24.7432 24.8092 24.6958 24.9735 24.5726 25.2045L10.4565 17.6722C9.31558 19.8104 8.78029 22.2332 8.78029 24.6094H24.7803ZM9.5344 20.8748C9.53773 20.8277 9.54059 20.7976 9.53893 20.816C9.53608 20.8477 9.5392 20.8128 9.53483 20.8612C9.53282 20.8835 9.52978 20.9175 9.52649 20.9565C9.51405 21.1042 9.48875 21.4248 9.48875 21.8203H25.4888C25.4888 21.9574 25.4844 22.0705 25.4801 22.1508C25.4759 22.2291 25.4713 22.2849 25.4701 22.2992C25.4694 22.3067 25.4692 22.3091 25.47 22.3C25.4704 22.2953 25.4709 22.2904 25.4717 22.2816C25.4724 22.2738 25.4734 22.2626 25.4745 22.2506C25.4785 22.206 25.4868 22.1127 25.4947 22.0019L9.5344 20.8748ZM9.48875 21.8203C9.48875 24.1636 10.1158 26.6799 11.6168 28.837C13.1274 31.0077 15.9428 33.2656 19.8863 33.2656V17.2656C22.4853 17.2656 24.102 18.7669 24.7499 19.6979C25.3883 20.6153 25.4888 21.409 25.4888 21.8203H9.48875ZM19.8863 33.2656C17.8708 33.2656 16.3398 32.4639 15.4169 31.7427C14.525 31.0458 14.0182 30.301 13.7512 29.826C13.2247 28.8894 13.085 28.0451 13.085 27.3984H29.085C29.085 25.6158 28.6651 23.7051 27.6988 21.9861C26.9639 20.6786 24.5579 17.2656 19.8863 17.2656V33.2656ZM13.085 27.3984C13.085 26.7517 13.2247 25.9075 13.7512 24.9709C14.0182 24.4959 14.525 23.7511 15.4169 23.0541C16.3398 22.3329 17.8708 21.5312 19.8863 21.5312V37.5312C24.5579 37.5312 26.9639 34.1183 27.6988 32.8108C28.6651 31.0918 29.085 29.1811 29.085 27.3984H13.085ZM19.8863 21.5312C22.7541 21.5312 24.1653 23.3572 24.4565 23.8185C24.6546 24.1325 24.7277 24.3612 24.7533 24.457C24.768 24.5122 24.7744 24.5508 24.7773 24.5729C24.7802 24.5953 24.7803 24.6071 24.7803 24.6094H8.78029C8.78029 27.2455 9.44117 30.0055 10.9258 32.3578C12.3418 34.6015 15.306 37.5312 19.8863 37.5312V21.5312ZM30.2381 28.3439C30.2348 28.391 30.2319 28.4212 30.2336 28.4027C30.2364 28.3711 30.2333 28.406 30.2377 28.3576C30.2397 28.3352 30.2427 28.3013 30.246 28.2622C30.2585 28.1145 30.2838 27.7939 30.2838 27.3984H14.2838C14.2838 27.2614 14.2881 27.1482 14.2924 27.0679C14.2966 26.9896 14.3013 26.9338 14.3025 26.9195C14.3031 26.9121 14.3033 26.9096 14.3025 26.9188C14.3021 26.9235 14.3016 26.9283 14.3008 26.9372C14.3001 26.945 14.2991 26.9562 14.298 26.9681C14.294 27.0128 14.2857 27.1061 14.2779 27.2168L30.2381 28.3439ZM30.2838 27.3984C30.2838 25.0551 29.6567 22.5388 28.1557 20.3818C26.6451 18.211 23.8297 15.9531 19.8863 15.9531V31.9531C17.2872 31.9531 15.6705 30.4519 15.0226 29.5208C14.3842 28.6034 14.2838 27.8098 14.2838 27.3984H30.2838ZM19.8863 15.9531C21.9017 15.9531 23.4327 16.7548 24.3556 17.476C25.2475 18.173 25.7543 18.9178 26.0213 19.3928C26.5478 20.3294 26.6875 21.1736 26.6875 21.8203H10.6875C10.6875 23.603 11.1074 25.5136 12.0737 27.2327C12.8087 28.5402 15.2146 31.9531 19.8863 31.9531V15.9531ZM26.6875 21.8203C26.6875 22.467 26.5478 23.3113 26.0213 24.2479C25.7543 24.7228 25.2475 25.4676 24.3556 26.1646C23.4327 26.8858 21.9017 27.6875 19.8863 27.6875V11.6875C15.2146 11.6875 12.8087 15.1004 12.0737 16.408C11.1074 18.127 10.6875 20.0376 10.6875 21.8203H26.6875ZM19.8863 27.6875C17.0184 27.6875 15.6072 25.8615 15.3161 25.4003C15.1179 25.0863 15.0448 24.8575 15.0192 24.7618C15.0045 24.7065 14.9981 24.6679 14.9952 24.6458C14.9923 24.6234 14.9922 24.6116 14.9922 24.6094H30.9922C30.9922 21.9732 30.3313 19.2133 28.8467 16.8609C27.4307 14.6173 24.4665 11.6875 19.8863 11.6875V27.6875ZM14.9922 24.6094C14.9922 24.6054 14.9922 24.5654 15.0113 24.4848C15.0292 24.4091 15.076 24.2467 15.1979 24.0181L29.3181 31.5427C30.455 29.4092 30.9922 26.9887 30.9922 24.6094H14.9922Z" fill="#BC9A6C" mask="url(#path-3-inside-2_52_1818)"/>
</g>
<path id="Vector_3" d="M14.2964 4.59375C14.2964 4.80754 14.2722 5.02841 14.2242 5.25H11.1636C11.1156 5.02841 11.0914 4.80754 11.0914 4.59375C11.0914 4.37996 11.1156 4.15909 11.1636 3.9375L14.2242 3.9375C14.2722 4.15909 14.2964 4.37996 14.2964 4.59375Z" fill="#BC9A6C" stroke="#BC9A6C" stroke-width="8"/>
<g id="Vector_4">
<mask id="path-6-inside-3_52_1818" fill="white">
<path d="M28.2775 3.9375H19.2869C18.956 3.9375 18.6875 4.2315 18.6875 4.59375C18.6875 4.956 18.956 5.25 19.2869 5.25H28.2775C28.6084 5.25 28.8769 4.956 28.8769 4.59375C28.8769 4.2315 28.6084 3.9375 28.2775 3.9375Z"/>
</mask>
<path d="M28.2775 3.9375H19.2869C18.956 3.9375 18.6875 4.2315 18.6875 4.59375C18.6875 4.956 18.956 5.25 19.2869 5.25H28.2775C28.6084 5.25 28.8769 4.956 28.8769 4.59375C28.8769 4.2315 28.6084 3.9375 28.2775 3.9375Z" fill="#BC9A6C"/>
<path d="M28.2775 -4.0625H19.2869V11.9375H28.2775V-4.0625ZM19.2869 -4.0625C13.8706 -4.0625 10.6875 0.511264 10.6875 4.59375H26.6875C26.6875 7.95174 24.0414 11.9375 19.2869 11.9375V-4.0625ZM10.6875 4.59375C10.6875 8.67624 13.8706 13.25 19.2869 13.25V-2.75C24.0414 -2.75 26.6875 1.23576 26.6875 4.59375H10.6875ZM19.2869 13.25H28.2775V-2.75H19.2869V13.25ZM28.2775 13.25C33.6938 13.25 36.8769 8.67624 36.8769 4.59375H20.8769C20.8769 1.23576 23.5229 -2.75 28.2775 -2.75V13.25ZM36.8769 4.59375C36.8769 0.511264 33.6938 -4.0625 28.2775 -4.0625V11.9375C23.5229 11.9375 20.8769 7.95174 20.8769 4.59375H36.8769Z" fill="#BC9A6C" mask="url(#path-6-inside-3_52_1818)"/>
</g>
</g>
</g>
</g>
<defs>
<clipPath id="clip0_52_1818">
<rect width="38.36" height="42" fill="white" transform="translate(0.706543)"/>
</clipPath>
</defs>
</svg>
