<svg width="45" height="45" viewBox="0 0 45 45" fill="none" xmlns="http://www.w3.org/2000/svg">
<g id="Am 1">
<g id="Group">
<g id="Group_2">
<g id="Group_3">
<path id="Vector" d="M42.0072 37.6657H35.7319C35.3729 37.6657 35.082 37.9608 35.082 38.3249C35.082 38.6889 35.3729 38.9841 35.7319 38.9841H41.3573V39.3559L31.8945 41.1787H12.9257L3.46286 39.3559V38.9841H6.04681C6.04785 38.9841 6.04889 38.9842 6.04984 38.9842C6.05062 38.9842 6.05149 38.9841 6.05227 38.9841H8.39377C8.39455 38.9841 8.39524 38.9842 8.39602 38.9842C8.39723 38.9842 8.39853 38.9841 8.39975 38.9841H16.1912C16.1916 38.9841 16.1921 38.9842 16.1926 38.9842C16.193 38.9842 16.1934 38.9841 16.1938 38.9841H18.5156C18.5163 38.9841 18.517 38.9842 18.5177 38.9842C18.5184 38.9842 18.5192 38.9841 18.5199 38.9841H26.3003C26.3011 38.9841 26.3018 38.9842 26.3025 38.9842C26.3032 38.9842 26.3039 38.9841 26.3045 38.9841H33.3186C33.6776 38.9841 33.9685 38.6889 33.9685 38.3249C33.9685 37.9608 33.6776 37.6657 33.3186 37.6657H29.1267C29.9029 37.1654 30.6272 36.5796 31.2784 35.9195C32.2183 34.9657 32.9899 33.8869 33.5797 32.7206C34.4015 33.0601 35.2716 33.2325 36.1737 33.2325C39.9799 33.2325 43.0764 30.0913 43.0764 26.2303C43.0764 22.3697 39.9799 19.2289 36.1737 19.2289C35.7613 19.2289 35.3526 19.2668 34.9511 19.3398V18.9627C34.9511 18.1189 34.2743 17.4325 33.4426 17.4325H30.369C30.01 17.4325 29.7191 17.7276 29.7191 18.0917C29.7191 18.4557 30.01 18.7509 30.369 18.7509H33.4426C33.5576 18.7509 33.6513 18.8459 33.6513 18.9627V20.0833H11.1678V18.9627C11.1678 18.8459 11.2615 18.7509 11.3767 18.7509H27.9548C28.3138 18.7509 28.6047 18.4557 28.6047 18.0917C28.6047 17.7276 28.3138 17.4325 27.9548 17.4325H11.3767C10.5448 17.4325 9.86806 18.1189 9.86806 18.9627V26.9238C9.86806 27.918 9.9827 28.9037 10.2061 29.8611C9.14833 29.5412 7.8879 29.7926 6.73786 30.5907C6.4416 30.7963 6.36569 31.2064 6.56837 31.5069C6.77113 31.8074 7.17562 31.8843 7.4718 31.6788C8.22549 31.1557 9.01645 30.9504 9.67049 31.0833L7.30335 34.6756C7.10387 34.9783 7.18411 35.3877 7.48245 35.5899C7.59337 35.6651 7.71893 35.7012 7.84301 35.7012C8.05279 35.7012 8.25868 35.5983 8.38389 35.4082L10.7517 31.8147C10.9973 32.1845 11.1319 32.6683 11.1382 33.2322C11.1382 33.2325 11.1382 33.2327 11.1382 33.2329C11.1382 33.2342 11.1383 33.2354 11.1383 33.2366C11.147 34.1075 10.847 35.0494 10.2938 35.8889C9.97837 36.3676 9.60542 36.7782 9.18308 37.1108C8.89028 37.3433 8.58267 37.5294 8.26752 37.6657H6.21448C6.191 37.6515 6.1676 37.6371 6.14429 37.6211C5.06227 36.8881 4.99382 34.9924 5.98841 33.3054C6.17263 32.9929 6.07229 32.5881 5.76424 32.4012C5.45637 32.2146 5.05716 32.3162 4.87294 32.6287C4.23891 33.704 3.92922 34.9022 4.00097 36.0025C4.04169 36.6268 4.20278 37.1893 4.46793 37.6656H2.81297C2.45398 37.6656 2.16309 37.9608 2.16309 38.3248V39.9016C2.16309 40.2182 2.38509 40.4901 2.69175 40.5491L12.2486 42.39V44.3408C12.2486 44.7049 12.5394 45 12.8984 45H31.9209C32.2799 45 32.5708 44.7049 32.5708 44.3408V42.3902L42.1284 40.5491C42.4351 40.4901 42.6571 40.2181 42.6571 39.9016V38.3248C42.6571 37.9608 42.3661 37.6657 42.0072 37.6657ZM34.951 26.9236V23.8049H34.9511C35.3277 23.6088 35.7441 23.5048 36.1737 23.5048C37.6554 23.5048 38.8608 24.7274 38.8608 26.2303C38.8608 27.7331 37.6554 28.9557 36.1737 28.9557C35.7016 28.9557 35.2471 28.8314 34.8434 28.5969C34.9143 28.0465 34.951 27.488 34.951 26.9236ZM34.5966 29.9449C35.0907 30.1613 35.6245 30.2742 36.1737 30.2742C38.3721 30.2742 40.1606 28.4601 40.1606 26.2303C40.1606 24.0006 38.3721 22.1865 36.1737 22.1865C35.7544 22.1865 35.3429 22.253 34.9511 22.3811V20.7492C34.9511 20.7469 34.9514 20.7447 34.9514 20.7425C34.9514 20.7402 34.9511 20.738 34.9511 20.7357V20.6839C35.35 20.5936 35.7596 20.5473 36.1738 20.5473C39.2632 20.5473 41.7767 23.0966 41.7767 26.2303C41.7767 29.3644 39.2632 31.9141 36.1738 31.9141C35.4573 31.9141 34.7666 31.7787 34.113 31.5153C34.3077 31.0042 34.4688 30.4797 34.5966 29.9449ZM11.1678 21.4016H33.6513V23.4307C33.6513 23.4314 33.6513 23.4322 33.6513 23.4329V26.9237C33.6513 29.9695 32.4821 32.8332 30.3593 34.9872C29.1832 36.1794 27.7427 37.1033 26.1885 37.6657H18.6324C18.4228 37.59 18.2143 37.5086 18.0083 37.4196C18.4851 36.6592 18.6668 35.8131 18.5099 35.0068C18.5097 35.0058 18.5096 35.0048 18.5095 35.0038C18.5092 35.0025 18.5088 35.0013 18.5086 35.0001C18.3014 33.9511 17.5707 33.088 16.4505 32.5696C15.4011 32.084 14.1186 31.9584 12.839 32.216C12.7226 32.2395 12.6073 32.2663 12.4929 32.2958C11.6254 30.651 11.1678 28.8049 11.1678 26.9238V21.4016ZM11.3746 36.6214C11.9762 35.7084 12.3393 34.6845 12.4204 33.6924C12.6384 33.6179 12.8627 33.5554 13.0924 33.509C14.7459 33.1761 16.3403 33.6807 16.9761 34.6409L12.7995 35.4829C12.4474 35.554 12.2187 35.9009 12.2887 36.258C12.3502 36.5716 12.6217 36.7887 12.9255 36.7887C12.9674 36.7887 13.0101 36.7846 13.0529 36.7759L17.2321 35.9332C17.1487 36.3669 16.9104 36.8016 16.5287 37.2009C16.5277 37.202 16.5267 37.2031 16.5258 37.2042C16.3666 37.3699 16.1866 37.5241 15.9906 37.6655H10.5263C10.8378 37.354 11.1219 37.0049 11.3746 36.6214ZM31.271 43.6818H13.5482V42.4971H31.271V43.6818Z" fill="white"/>
</g>
</g>
<g id="Group_4">
<g id="Group_5">
<g id="Group_6">
<path id="Vector_2" d="M24.1026 13.1792C24.0904 13.1869 24.0804 13.1931 24.0732 13.1977C24.08 13.1934 24.0899 13.1872 24.1026 13.1792Z" fill="#BC9A6C"/>
<path id="Vector_3" d="M24.0731 13.1971C24.0552 13.2084 24.0575 13.207 24.0731 13.1971V13.1971Z" fill="#BC9A6C"/>
<path id="Vector_4" d="M25.5082 7.19543C26.3834 6.35168 26.8874 5.18247 26.8874 3.92739C26.8874 2.36514 26.1077 0.934895 24.8017 0.10134C24.498 -0.0925465 24.0966 9.01893e-05 23.9056 0.308235C23.7144 0.616379 23.8058 1.02331 24.1096 1.2172C25.0352 1.80791 25.5877 2.82103 25.5877 3.92731C25.5877 5.03359 25.0352 6.0467 24.1096 6.63741C23.7123 6.89019 23.7123 7.49962 24.1096 7.75327C25.0352 8.34399 25.5877 9.3571 25.5877 10.4634C25.5878 11.5697 25.0352 12.583 24.1096 13.1737C24.1063 13.1758 24.1041 13.1772 24.1011 13.1791C24.1039 13.1774 24.1066 13.1757 24.1096 13.1738C23.8058 13.3676 23.7145 13.7746 23.9057 14.0827C24.0291 14.2819 24.2403 14.3909 24.4562 14.3909C24.5745 14.3909 24.6943 14.3582 24.8017 14.2896C26.1077 13.4561 26.8874 12.0258 26.8874 10.4636C26.8874 9.20839 26.3833 8.03918 25.5082 7.19543ZM24.4486 12.9573C24.464 12.9475 24.4659 12.9463 24.4486 12.9573V12.9573ZM24.364 13.0114C24.3782 13.0023 24.3913 12.9939 24.4032 12.9864C24.3919 12.9936 24.3791 13.0017 24.364 13.0114Z" fill="#BC9A6C"/>
</g>
</g>
</g>
<g id="Group_7">
<g id="Group_8">
<path id="Vector_5" d="M29.375 6.63749C29.0712 6.44361 28.6699 6.53616 28.4788 6.84439C28.2877 7.15245 28.379 7.55947 28.6828 7.75335C29.6083 8.34407 30.1609 9.35727 30.1609 10.4635C30.161 11.5697 29.6084 12.5829 28.6829 13.1736C28.3791 13.3675 28.2877 13.7744 28.4789 14.0825C28.6024 14.2817 28.8135 14.3908 29.0295 14.3908C29.1478 14.3908 29.2675 14.358 29.375 14.2894C30.6809 13.456 31.4606 12.0256 31.4606 10.4635C31.4606 8.90129 30.6809 7.47096 29.375 6.63749Z" fill="#BC9A6C"/>
</g>
</g>
<g id="Group_9">
<g id="Group_10">
<path id="Vector_6" d="M19.8535 6.63747C19.5498 6.44359 19.1483 6.53622 18.9573 6.84437C18.7662 7.15251 18.8575 7.55945 19.1613 7.75333C20.0869 8.34405 20.6395 9.35716 20.6395 10.4634C20.6396 11.5697 20.087 12.5829 19.1614 13.1736C18.8576 13.3675 18.7663 13.7745 18.9574 14.0826C19.0809 14.2818 19.2921 14.3908 19.508 14.3908C19.6263 14.3908 19.746 14.358 19.8535 14.2895C21.1595 13.456 21.9392 12.0257 21.9392 10.4635C21.9392 8.90127 21.1595 7.47103 19.8535 6.63747Z" fill="#BC9A6C"/>
</g>
</g>
</g>
</g>
</svg>
